<svg width="20" height="21" viewBox="0 0 20 21" fill="none" xmlns="http://www.w3.org/2000/svg">
<path d="M14.1667 5.49984H14.7667C14.7667 5.16847 14.4981 4.89984 14.1667 4.89984V5.49984ZM14.1667 7.99984V8.59984C14.4981 8.59984 14.7667 8.33121 14.7667 7.99984H14.1667ZM11.25 18.8332H10.65C10.65 19.1645 10.9187 19.4332 11.25 19.4332V18.8332ZM8.75002 18.8332V19.4332C9.08139 19.4332 9.35002 19.1645 9.35002 18.8332H8.75002ZM8.75002 12.9998H9.35002C9.35002 12.6685 9.08139 12.3998 8.75002 12.3998V12.9998ZM5.83335 12.9998H5.23335C5.23335 13.3312 5.50198 13.5998 5.83335 13.5998V12.9998ZM5.83335 10.4998V9.89984C5.50198 9.89984 5.23335 10.1685 5.23335 10.4998H5.83335ZM8.75002 10.4998V11.0998C9.08139 11.0998 9.35002 10.8312 9.35002 10.4998H8.75002ZM11.25 10.4998H10.65C10.65 10.8312 10.9187 11.0998 11.25 11.0998V10.4998ZM14.1667 10.4998H14.7667C14.7667 10.1685 14.4981 9.89984 14.1667 9.89984V10.4998ZM14.1667 12.9998V13.5998C14.4981 13.5998 14.7667 13.3312 14.7667 12.9998H14.1667ZM11.25 12.9998V12.3998C10.9187 12.3998 10.65 12.6685 10.65 12.9998H11.25ZM5.00002 2.7665H15V1.5665H5.00002V2.7665ZM17.7334 5.49984V15.4998H18.9334V5.49984H17.7334ZM2.26669 15.4998V5.49984H1.06669V15.4998H2.26669ZM5.00002 18.2332C3.49044 18.2332 2.26669 17.0094 2.26669 15.4998H1.06669C1.06669 17.6722 2.8277 19.4332 5.00002 19.4332V18.2332ZM17.7334 15.4998C17.7334 17.0094 16.5096 18.2332 15 18.2332V19.4332C17.1723 19.4332 18.9334 17.6722 18.9334 15.4998H17.7334ZM15 2.7665C16.5096 2.7665 17.7334 3.99026 17.7334 5.49984H18.9334C18.9334 3.32752 17.1723 1.5665 15 1.5665V2.7665ZM5.00002 1.5665C2.8277 1.5665 1.06669 3.32752 1.06669 5.49984H2.26669C2.26669 3.99026 3.49044 2.7665 5.00002 2.7665V1.5665ZM12.75 6.09984H14.1667V4.89984H12.75V6.09984ZM13.5667 5.49984V7.99984H14.7667V5.49984H13.5667ZM14.1667 7.39984H12.25V8.59984H14.1667V7.39984ZM9.35002 18.8332V12.9998H8.15002V18.8332H9.35002ZM8.75002 12.3998H5.83335V13.5998H8.75002V12.3998ZM6.43335 12.9998V10.4998H5.23335V12.9998H6.43335ZM5.83335 11.0998H8.75002V9.89984H5.83335V11.0998ZM9.35002 10.4998V9.49984H8.15002V10.4998H9.35002ZM10.65 8.99984V10.4998H11.85V8.99984H10.65ZM11.25 11.0998H14.1667V9.89984H11.25V11.0998ZM13.5667 10.4998V12.9998H14.7667V10.4998H13.5667ZM10.65 12.9998V18.8332H11.85V12.9998H10.65ZM14.1667 12.3998H11.25V13.5998H14.1667V12.3998ZM15 18.2332H11.25V19.4332H15V18.2332ZM8.75002 18.2332H5.00002V19.4332H8.75002V18.2332ZM12.25 7.39984C11.3664 7.39984 10.65 8.11618 10.65 8.99984H11.85C11.85 8.77893 12.0291 8.59984 12.25 8.59984V7.39984ZM12.75 4.89984C10.2095 4.89984 8.15002 6.95933 8.15002 9.49984H9.35002C9.35002 7.62207 10.8723 6.09984 12.75 6.09984V4.89984Z" fill="black"/>
</svg>